Encode_Exp_Bd_sup.ufo
<glyph name="ampersand" format="1">
  <advance width="625.11627743"/>
  <unicode hex="0026"/>
  <outline>
    <contour>
      <point x="625.11627743" y="116.067843957" type="line"/>
      <point x="280.948128161" y="300.353552086" type="line" smooth="yes"/>
      <point x="263.426339638" y="311.282444592"/>
      <point x="252.989810768" y="322.512156627"/>
      <point x="252.989810768" y="335.07696889" type="curve" smooth="yes"/>
      <point x="252.989810768" y="355.797045134"/>
      <point x="267.375814799" y="372.619981105"/>
      <point x="348.130844227" y="372.619981105" type="curve" smooth="yes"/>
      <point x="377.208233657" y="372.619981105"/>
      <point x="412.244537798" y="368.645777185"/>
      <point x="436.302954273" y="364.322757231" type="curve"/>
      <point x="436.302954273" y="500.976152599" type="line"/>
      <point x="405.495067064" y="504.623172568"/>
      <point x="373.767067797" y="507.081784544"/>
      <point x="335.296207695" y="507.081784544" type="curve" smooth="yes"/>
      <point x="157.039054597" y="507.081784544"/>
      <point x="72.8031999145" y="444.338846115"/>
      <point x="72.8031999145" y="343.412724589" type="curve" smooth="yes"/>
      <point x="72.8031999145" y="295.537053484"/>
      <point x="93.9485895272" y="240.660726908"/>
      <point x="211.892138482" y="177.525708282" type="curve" smooth="yes"/>
      <point x="556.06028775" y="-6.75999984741" type="line"/>
    </contour>
    <contour>
      <point x="537.59855747" y="232.878613764" type="curve" smooth="yes"/>
      <point x="537.59855747" y="256.151265372"/>
      <point x="533.898279536" y="285.56808075"/>
      <point x="528.218306596" y="312.1991002" type="curve"/>
      <point x="390.767327221" y="312.1991002" type="line"/>
      <point x="396.447300161" y="285.56808075"/>
      <point x="400.675717094" y="255.557061375"/>
      <point x="400.675717094" y="231.281225831" type="curve" smooth="yes"/>
      <point x="400.675717094" y="134.449636037"/>
      <point x="347.141328229" y="107.917312316"/>
      <point x="286.109876952" y="107.917312316" type="curve" smooth="yes"/>
      <point x="243.081420896" y="107.917312316"/>
      <point x="210.702336492" y="123.595104457"/>
      <point x="210.702336492" y="155.415100244" type="curve" smooth="yes"/>
      <point x="210.702336492" y="178.261872172"/>
      <point x="220.999394476" y="193.814604162"/>
      <point x="229.811846959" y="208.217459981" type="curve"/>
      <point x="136.54475012" y="264.195666222" type="line"/>
      <point x="81.5588052484" y="250.201790342"/>
      <point x="30.5157256385" y="203.884975346"/>
      <point x="30.5157256385" y="137.473384866" type="curve" smooth="yes"/>
      <point x="30.5157256385" y="49.5332229438"/>
      <point x="110.250831515" y="-6.08399986267"/>
      <point x="264.014630734" y="-6.08399986267" type="curve" smooth="yes"/>
      <point x="435.645259237" y="-6.08399986267"/>
      <point x="537.59855747" y="73.7008980785"/>
    </contour>
  </outline>
</glyph>
<glyph name="zero" format="1">
  <advance width="491.863307435"/>
  <unicode hex="0030"/>
  <outline>
    <contour>
      <point x="472.710832625" y="250.119994354" type="curve" smooth="yes"/>
      <point x="472.710832625" y="417.505702865"/>
      <point x="383.452700039" y="507.081784544"/>
      <point x="245.931653718" y="507.081784544" type="curve" smooth="yes"/>
      <point x="107.616746425" y="507.081784544"/>
      <point x="19.15247481" y="417.505702865"/>
      <point x="19.15247481" y="250.119994354" type="curve" smooth="yes"/>
      <point x="19.15247481" y="82.7342858437"/>
      <point x="107.218163464" y="-6.84179583525"/>
      <point x="245.931653718" y="-6.84179583525" type="curve" smooth="yes"/>
      <point x="383.851282999" y="-6.84179583525"/>
      <point x="472.710832625" y="82.7342858437"/>
    </contour>
    <contour>
      <point x="196.163641777" y="249.956402379" type="curve" smooth="yes"/>
      <point x="196.163641777" y="341.949861488"/>
      <point x="213.848035833" y="368.07320527"/>
      <point x="245.931653718" y="368.07320527" type="curve" smooth="yes"/>
      <point x="278.015271602" y="368.07320527"/>
      <point x="295.699665658" y="341.949861488"/>
      <point x="295.699665658" y="250.28358633" type="curve" smooth="yes"/>
      <point x="295.699665658" y="158.29012722"/>
      <point x="278.015271602" y="132.166783439"/>
      <point x="245.931653718" y="132.166783439" type="curve" smooth="yes"/>
      <point x="213.054174861" y="132.166783439"/>
      <point x="196.163641777" y="158.29012722"/>
    </contour>
  </outline>
</glyph>
<glyph name="one" format="1">
  <advance width="491.863307435"/>
  <unicode hex="0031"/>
  <outline>
    <contour>
      <point x="363.26377693" y="0.0" type="line"/>
      <point x="363.26377693" y="502.349784651" type="line"/>
      <point x="239.301824173" y="502.349784651" type="line"/>
      <point x="63.1836666625" y="374.75411185" type="line"/>
      <point x="63.1836666625" y="212.068633369" type="line"/>
      <point x="239.301824173" y="339.827898145" type="line"/>
      <point x="178.842139245" y="413.682923518" type="line"/>
      <point x="178.842139245" y="0.0" type="line"/>
    </contour>
    <contour>
      <point x="472.312249665" y="0.0" type="line"/>
      <point x="472.312249665" y="137.574783316" type="line"/>
      <point x="63.1836666625" y="137.574783316" type="line"/>
      <point x="63.1836666625" y="0.0" type="line"/>
    </contour>
  </outline>
</glyph>
<glyph name="two" format="1">
  <advance width="491.863307435"/>
  <unicode hex="0032"/>
  <outline>
    <contour>
      <point x="455.375447288" y="0.0" type="line"/>
      <point x="455.375447288" y="136.816987344" type="line"/>
      <point x="243.390107213" y="136.816987344" type="line"/>
      <point x="237.168775478" y="92.3307808431" type="line"/>
      <point x="352.415445301" y="202.244323249" type="line" smooth="yes"/>
      <point x="408.059085208" y="255.325870433"/>
      <point x="433.177084629" y="301.375665383"/>
      <point x="433.177084629" y="352.527908342" type="curve" smooth="yes"/>
      <point x="433.177084629" y="456.076233819"/>
      <point x="358.733283579" y="507.081784544"/>
      <point x="179.403327738" y="507.081784544" type="curve" smooth="yes"/>
      <point x="131.548911812" y="507.081784544"/>
      <point x="62.3865007414" y="496.614600821"/>
      <point x="28.0145015349" y="486.801785002" type="curve"/>
      <point x="28.0145015349" y="350.148389633" type="line"/>
      <point x="59.8687518903" y="361.313205423"/>
      <point x="115.007387446" y="372.619981105"/>
      <point x="165.113830249" y="372.619981105" type="curve" smooth="yes"/>
      <point x="234.239886875" y="372.619981105"/>
      <point x="252.857612788" y="358.604473143"/>
      <point x="252.857612788" y="332.231009058" type="curve" smooth="yes"/>
      <point x="252.857612788" y="312.437053102"/>
      <point x="236.867362067" y="292.15232122"/>
      <point x="198.947775609" y="253.326937622" type="curve" smooth="yes"/>
      <point x="33.9635013975" y="90.0573929254" type="line"/>
      <point x="33.9635013975" y="0.0" type="line"/>
    </contour>
  </outline>
</glyph>
<glyph name="three" format="1">
  <advance width="491.863307435"/>
  <unicode hex="0033"/>
  <outline>
    <contour>
      <point x="445.058559607" y="144.129956644" type="curve" smooth="yes"/>
      <point x="445.058559607" y="213.267179145"/>
      <point x="402.761170482" y="247.786442531"/>
      <point x="342.90233344" y="258.929626238" type="curve"/>
      <point x="342.90233344" y="255.60979022" type="line"/>
      <point x="393.646641582" y="268.208401967"/>
      <point x="426.417699047" y="309.199013072"/>
      <point x="426.417699047" y="361.397704131" type="curve" smooth="yes"/>
      <point x="426.417699047" y="453.617621843"/>
      <point x="354.093063888" y="507.081784544"/>
      <point x="191.699910423" y="507.081784544" type="curve" smooth="yes"/>
      <point x="140.401023688" y="507.081784544"/>
      <point x="74.1483345304" y="497.966600791"/>
      <point x="37.7966403191" y="486.556397038" type="curve"/>
      <point x="37.7966403191" y="364.301125149" type="line"/>
      <point x="75.8656125109" y="377.063328871"/>
      <point x="132.59197001" y="385.502512639"/>
      <point x="174.367830035" y="385.502512639" type="curve" smooth="yes"/>
      <point x="232.907972057" y="385.502512639"/>
      <point x="251.655254008" y="371.138188644"/>
      <point x="251.655254008" y="347.839172613" type="curve" smooth="yes"/>
      <point x="251.655254008" y="329.965056201"/>
      <point x="240.195496637" y="316.113140215"/>
      <point x="178.234018452" y="316.113140215" type="curve" smooth="yes"/>
      <point x="77.9649487045" y="316.113140215" type="line"/>
      <point x="77.9649487045" y="193.776072338" type="line"/>
      <point x="187.59113468" y="193.776072338" type="line" smooth="yes"/>
      <point x="258.560720374" y="193.776072338"/>
      <point x="275.853141368" y="180.333136291"/>
      <point x="275.853141368" y="154.657304272" type="curve" smooth="yes"/>
      <point x="275.853141368" y="129.881228119"/>
      <point x="253.800859494" y="114.737476069"/>
      <point x="188.667242372" y="114.737476069" type="curve" smooth="yes"/>
      <point x="132.601884858" y="114.737476069"/>
      <point x="73.630110381" y="123.689067846"/>
      <point x="31.1965553202" y="133.256495703" type="curve"/>
      <point x="31.1965553202" y="11.0012238136" type="line"/>
      <point x="78.5294421469" y="0.594203996902"/>
      <point x="134.721050749" y="-6.84179583525"/>
      <point x="200.047017948" y="-6.84179583525" type="curve" smooth="yes"/>
      <point x="376.175090308" y="-6.84179583525"/>
      <point x="445.058559607" y="53.3005707247"/>
    </contour>
  </outline>
</glyph>
<glyph name="four" format="1">
  <advance width="491.863307435"/>
  <unicode hex="0034"/>
  <outline>
    <contour>
      <point x="482.479751612" y="81.2930548252" type="line"/>
      <point x="482.479751612" y="215.078858279" type="line"/>
      <point x="166.020059503" y="215.078858279" type="line"/>
      <point x="179.11380811" y="174.463427629" type="line"/>
      <point x="319.050149848" y="500.239988708" type="line"/>
      <point x="154.345480415" y="500.239988708" type="line"/>
      <point x="9.51311186108" y="174.381631641" type="line"/>
      <point x="9.51311186108" y="81.2930548252" type="line"/>
    </contour>
    <contour>
      <point x="419.830833846" y="0.0" type="line"/>
      <point x="419.830833846" y="331.239992523" type="line"/>
      <point x="270.202912974" y="331.239992523" type="line"/>
      <point x="255.255720451" y="215.078858279" type="line"/>
      <point x="255.255720451" y="0.0" type="line"/>
    </contour>
  </outline>
</glyph>
<glyph name="five" format="1">
  <advance width="491.863307435"/>
  <unicode hex="0035"/>
  <outline>
    <contour>
      <point x="456.56458627" y="156.685304226" type="curve" smooth="yes"/>
      <point x="457.358447242" y="255.256241846"/>
      <point x="389.929838899" y="311.996976401"/>
      <point x="201.126430591" y="319.945384242" type="curve" smooth="yes"/>
      <point x="108.832325004" y="324.00138415" type="line"/>
      <point x="230.940833843" y="268.208401967" type="line"/>
      <point x="243.629389591" y="448.99378236" type="line"/>
      <point x="171.397956025" y="375.547736926" type="line"/>
      <point x="433.824864815" y="375.547736926" type="line"/>
      <point x="433.824864815" y="500.239988708" type="line"/>
      <point x="76.2741103199" y="500.239988708" type="line"/>
      <point x="56.178388804" y="203.937704191" type="line"/>
      <point x="148.339633404" y="199.881704282" type="line" smooth="yes"/>
      <point x="266.894608101" y="194.882684344"/>
      <point x="286.565307061" y="180.272972385"/>
      <point x="286.565307061" y="155.169712281" type="curve" smooth="yes"/>
      <point x="286.565307061" y="133.321391949"/>
      <point x="265.310191107" y="117.76865996"/>
      <point x="199.379408065" y="117.76865996" type="curve" smooth="yes"/>
      <point x="143.579772524" y="117.76865996"/>
      <point x="84.6079980469" y="126.720251737"/>
      <point x="41.9087210124" y="136.287679593" type="curve"/>
      <point x="41.9087210124" y="14.0324077039" type="line"/>
      <point x="89.5073298127" y="2.02799995422"/>
      <point x="145.698938415" y="-6.84179583525"/>
      <point x="210.759183641" y="-6.84179583525" type="curve" smooth="yes"/>
      <point x="380.80539515" y="-6.84179583525"/>
      <point x="455.770725299" y="53.7095506639"/>
    </contour>
  </outline>
</glyph>
<glyph name="six" format="1">
  <advance width="491.863307435"/>
  <unicode hex="0036"/>
  <outline>
    <contour>
      <point x="472.56805679" y="157.094284165" type="curve" smooth="yes"/>
      <point x="472.56805679" y="268.323997438"/>
      <point x="397.067977745" y="314.722608422"/>
      <point x="297.655563009" y="314.722608422" type="curve" smooth="yes"/>
      <point x="253.770451942" y="314.722608422"/>
      <point x="206.052201952" y="301.611588666"/>
      <point x="181.339395392" y="281.473549017" type="curve"/>
      <point x="181.339395392" y="173.103992598" type="line"/>
      <point x="208.168062893" y="188.798684481"/>
      <point x="231.140456827" y="197.690112353"/>
      <point x="260.609819318" y="197.690112353" type="curve" smooth="yes"/>
      <point x="289.245661444" y="197.690112353"/>
      <point x="308.919665353" y="184.328972293"/>
      <point x="308.919665353" y="153.38710029" type="curve" smooth="yes"/>
      <point x="308.919665353" y="126.152412162"/>
      <point x="292.686827304" y="110.190700234"/>
      <point x="262.978182435" y="110.190700234" type="curve" smooth="yes"/>
      <point x="227.994757486" y="110.190700234"/>
      <point x="206.341058573" y="131.031104289"/>
      <point x="206.341058573" y="205.099747762" type="curve" smooth="yes"/>
      <point x="206.341058573" y="282.661957011" type="line" smooth="yes"/>
      <point x="206.341058573" y="340.511333191"/>
      <point x="240.955645106" y="382.471328749"/>
      <point x="327.121620551" y="382.471328749" type="curve" smooth="yes"/>
      <point x="363.748951584" y="382.471328749"/>
      <point x="405.528116559" y="375.38414495"/>
      <point x="439.641003691" y="362.458349252" type="curve"/>
      <point x="439.641003691" y="487.744805032" type="line"/>
      <point x="400.632089743" y="502.267988663"/>
      <point x="362.290785679" y="507.081784544"/>
      <point x="313.758845021" y="507.081784544" type="curve" smooth="yes"/>
      <point x="129.957884919" y="507.081784544"/>
      <point x="29.9908915901" y="404.209459051"/>
      <point x="29.9908915901" y="230.02521887" type="curve" smooth="yes"/>
      <point x="29.9908915901" y="74.9927341422"/>
      <point x="128.111050901" y="-6.84179583525"/>
      <point x="262.978182435" y="-6.84179583525" type="curve" smooth="yes"/>
      <point x="399.054282648" y="-6.84179583525"/>
      <point x="472.56805679" y="62.4542863015"/>
    </contour>
  </outline>
</glyph>
<glyph name="seven" format="1">
  <advance width="491.863307435"/>
  <unicode hex="0037"/>
  <outline>
    <contour>
      <point x="291.915437972" y="0.0" type="line"/>
      <point x="449.954586423" y="410.182595783" type="line"/>
      <point x="449.954586423" y="500.239988708" type="line"/>
      <point x="27.5028872844" y="500.239988708" type="line"/>
      <point x="27.5028872844" y="363.423001365" type="line"/>
      <point x="336.977131231" y="363.423001365" type="line"/>
      <point x="273.076280443" y="410.100799795" type="line"/>
      <point x="102.468217433" y="0.0" type="line"/>
    </contour>
  </outline>
</glyph>
<glyph name="eight" format="1">
  <advance width="491.863307435"/>
  <unicode hex="0038"/>
  <outline>
    <contour>
      <point x="474.820083667" y="148.306284364" type="curve" smooth="yes"/>
      <point x="474.820083667" y="220.883670694"/>
      <point x="438.604555392" y="272.565221404"/>
      <point x="298.183702007" y="307.243344425" type="curve" smooth="yes"/>
      <point x="206.18175799" y="330.718119834"/>
      <point x="197.611892835" y="343.894035835"/>
      <point x="197.611892835" y="364.756071973" type="curve" smooth="yes"/>
      <point x="197.611892835" y="378.121944373"/>
      <point x="211.336896881" y="394.59606431"/>
      <point x="256.783290296" y="394.59606431" type="curve" smooth="yes"/>
      <point x="292.836213038" y="394.59606431"/>
      <point x="307.614190131" y="380.744148324"/>
      <point x="307.614190131" y="360.291092125" type="curve" smooth="yes"/>
      <point x="307.614190131" y="339.532484058"/>
      <point x="294.407410234" y="318.266200321"/>
      <point x="255.697267754" y="297.288568712" type="curve"/>
      <point x="359.543669298" y="261.547097849" type="line"/>
      <point x="441.25847018" y="286.640893272"/>
      <point x="463.456832839" y="333.448484195"/>
      <point x="463.456832839" y="382.185379342" type="curve" smooth="yes"/>
      <point x="463.456832839" y="460.519581584"/>
      <point x="393.776197619" y="507.081784544"/>
      <point x="262.20745611" y="507.081784544" type="curve" smooth="yes"/>
      <point x="96.7651098469" y="507.081784544"/>
      <point x="29.3331965548" y="443.090274215"/>
      <point x="29.3331965548" y="358.77550018" type="curve" smooth="yes"/>
      <point x="29.3331965548" y="286.012889792"/>
      <point x="69.6508906746" y="224.725379402"/>
      <point x="208.480717167" y="194.757624192" type="curve" smooth="yes"/>
      <point x="293.606939363" y="175.747828631"/>
      <point x="308.129109331" y="162.16293269"/>
      <point x="308.129109331" y="138.618528696" type="curve" smooth="yes"/>
      <point x="308.129109331" y="119.926452406"/>
      <point x="292.690132254" y="105.643924398"/>
      <point x="247.516070711" y="105.643924398" type="curve" smooth="yes"/>
      <point x="202.611036092" y="105.643924398"/>
      <point x="184.660920063" y="121.442044351"/>
      <point x="184.660920063" y="145.787508482" type="curve" smooth="yes"/>
      <point x="184.660920063" y="165.870116565"/>
      <point x="197.332951063" y="191.132236305"/>
      <point x="244.509842256" y="207.705051972" type="curve"/>
      <point x="129.286970086" y="241.173134917" type="line"/>
      <point x="56.0422228677" y="222.735911271"/>
      <point x="17.0432237679" y="177.60750427"/>
      <point x="17.0432237679" y="120.18603739" type="curve" smooth="yes"/>
      <point x="17.0432237679" y="51.2509386884"/>
      <point x="77.7223613773" y="-6.84179583525"/>
      <point x="246.855070727" y="-6.84179583525" type="curve" smooth="yes"/>
      <point x="412.815641139" y="-6.84179583525"/>
      <point x="474.820083667" y="67.3498781703"/>
    </contour>
  </outline>
</glyph>
<glyph name="nine" format="1">
  <advance width="491.863307435"/>
  <unicode hex="0039"/>
  <outline>
    <contour>
      <point x="19.2952506454" y="343.145704543" type="curve" smooth="yes"/>
      <point x="19.2952506454" y="231.915991271"/>
      <point x="94.7953296907" y="185.517380287"/>
      <point x="194.207744426" y="185.517380287" type="curve" smooth="yes"/>
      <point x="238.092855494" y="185.517380287"/>
      <point x="285.811105483" y="198.628400043"/>
      <point x="310.523912044" y="218.766439691" type="curve"/>
      <point x="310.523912044" y="327.13599611" type="line"/>
      <point x="283.695244542" y="311.441304227"/>
      <point x="260.722850608" y="302.549876356"/>
      <point x="231.253488117" y="302.549876356" type="curve" smooth="yes"/>
      <point x="202.617645991" y="302.549876356"/>
      <point x="182.943642082" y="315.911016415"/>
      <point x="182.943642082" y="346.852888418" type="curve" smooth="yes"/>
      <point x="182.943642082" y="374.087576546"/>
      <point x="199.176480131" y="390.049288475"/>
      <point x="228.885125" y="390.049288475" type="curve" smooth="yes"/>
      <point x="263.868549949" y="390.049288475"/>
      <point x="285.522248863" y="369.208884419"/>
      <point x="285.522248863" y="295.140240946" type="curve" smooth="yes"/>
      <point x="285.522248863" y="217.578031697" type="line" smooth="yes"/>
      <point x="285.522248863" y="159.728655518"/>
      <point x="250.907662329" y="117.76865996"/>
      <point x="164.741686884" y="117.76865996" type="curve" smooth="yes"/>
      <point x="128.114355851" y="117.76865996"/>
      <point x="86.3351908759" y="124.855843758"/>
      <point x="52.222303744" y="137.781639456" type="curve"/>
      <point x="52.222303744" y="12.4951836767" type="line"/>
      <point x="91.2312176923" y="-2.02799995422"/>
      <point x="129.572521757" y="-6.84179583525"/>
      <point x="178.104462415" y="-6.84179583525" type="curve" smooth="yes"/>
      <point x="361.905422516" y="-6.84179583525"/>
      <point x="461.872415845" y="96.030529657"/>
      <point x="461.872415845" y="270.214769839" type="curve" smooth="yes"/>
      <point x="461.872415845" y="425.247254566"/>
      <point x="363.752256534" y="507.081784544"/>
      <point x="228.885125" y="507.081784544" type="curve" smooth="yes"/>
      <point x="92.809024787" y="507.081784544"/>
      <point x="19.2952506454" y="437.785702407"/>
    </contour>
  </outline>
</glyph>
<glyph name="A" format="1">
  <advance width="602.014327459"/>
  <unicode hex="0041"/>
  <outline>
    <contour>
      <point x="300.146872264" y="513.759988403" type="move" name="top"/>
    </contour>
    <contour>
      <point x="599.247381382" y="0.0" type="move" name="ogonek"/>
    </contour>
    <contour>
      <point x="300.940733236" y="0.0" type="move" name="bottom"/>
    </contour>
    <contour>
      <point x="180.439113029" y="0.0" type="line"/>
      <point x="307.421177046" y="427.611903152" type="line"/>
      <point x="293.138289456" y="427.611903152" type="line"/>
      <point x="420.120353473" y="0.0" type="line"/>
      <point x="599.247381382" y="0.0" type="line"/>
      <point x="434.694739625" y="500.239988708" type="line"/>
      <point x="167.319587833" y="500.239988708" type="line"/>
      <point x="2.76694607733" y="0.0" type="line"/>
    </contour>
    <contour>
      <point x="423.747259512" y="104.957786631" type="line"/>
      <point x="382.207376915" y="234.872814234" type="line"/>
      <point x="219.013089573" y="234.872814234" type="line"/>
      <point x="176.679346004" y="104.957786631" type="line"/>
    </contour>
  </outline>
</glyph>
<glyph name="B" format="1">
  <advance width="514.187921182"/>
  <unicode hex="0042"/>
  <outline>
    <contour>
      <point x="269.329070208" y="500.239988708" type="move" name="top"/>
    </contour>
    <contour>
      <point x="269.329070208" y="0.0" type="move" name="bottom"/>
    </contour>
    <contour>
      <point x="499.260558355" y="146.566936537" type="curve" smooth="yes"/>
      <point x="499.260558355" y="216.522118917"/>
      <point x="455.627949463" y="250.714198351"/>
      <point x="410.055304961" y="259.502198153" type="curve"/>
      <point x="410.453887921" y="255.60979022" type="line"/>
      <point x="450.608976509" y="266.425789976"/>
      <point x="487.100141606" y="307.171013118"/>
      <point x="487.100141606" y="360.187664055" type="curve" smooth="yes"/>
      <point x="487.100141606" y="453.454029868"/>
      <point x="416.492784427" y="507.245376519"/>
      <point x="238.248851127" y="507.245376519" type="curve" smooth="yes"/>
      <point x="177.300686594" y="507.245376519"/>
      <point x="90.2714462389" y="496.369212858"/>
      <point x="36.8566985627" y="483.116233208" type="curve"/>
      <point x="36.8566985627" y="3.89240793277" type="line"/>
      <point x="81.4028096151" y="-2.10979594206"/>
      <point x="162.217328134" y="-7.16897978661"/>
      <point x="206.504327112" y="-7.16897978661" type="curve" smooth="yes"/>
      <point x="432.492949997" y="-7.16897978661"/>
      <point x="499.260558355" y="53.7095506639"/>
    </contour>
    <contour>
      <point x="217.30903139" y="114.268332224" type="curve"/>
      <point x="217.30903139" y="381.506676637" type="line"/>
      <point x="229.984367339" y="384.559492609"/>
      <point x="247.818147129" y="387.18169656"/>
      <point x="259.550236373" y="387.18169656" type="curve" smooth="yes"/>
      <point x="302.718163315" y="387.18169656"/>
      <point x="314.586418494" y="374.272800604"/>
      <point x="314.586418494" y="351.851908357" type="curve" smooth="yes"/>
      <point x="314.586418494" y="330.537628116"/>
      <point x="303.644885273" y="316.113140215"/>
      <point x="262.709155512" y="316.113140215" type="curve" smooth="yes"/>
      <point x="197.731534023" y="316.113140215" type="line"/>
      <point x="197.731534023" y="193.776072338" type="line"/>
      <point x="277.656348036" y="193.776072338" type="line" smooth="yes"/>
      <point x="322.687633743" y="193.776072338"/>
      <point x="332.436723032" y="180.354768373"/>
      <point x="332.436723032" y="152.465712342" type="curve" smooth="yes"/>
      <point x="332.436723032" y="127.771432177"/>
      <point x="318.183579988" y="112.894700173"/>
      <point x="258.76629025" y="112.894700173" type="curve" smooth="yes"/>
      <point x="247.555730105" y="112.894700173"/>
      <point x="234.614672182" y="112.649312209"/>
    </contour>
  </outline>
</glyph>
<glyph name="C" format="1">
  <advance width="505.342419205"/>
  <unicode hex="0043"/>
  <outline>
    <contour>
      <point x="298.416374486" y="513.759988403" type="move" name="top"/>
    </contour>
    <contour>
      <point x="297.087764617" y="0.0" type="move" name="bottom"/>
    </contour>
    <contour>
      <point x="480.745948884" y="5.61485601767" type="curve"/>
      <point x="480.745948884" y="145.299435276" type="line"/>
      <point x="451.678474302" y="139.848171234"/>
      <point x="413.074753214" y="134.440171356"/>
      <point x="372.624198107" y="134.440171356" type="curve" smooth="yes"/>
      <point x="256.424366729" y="134.440171356"/>
      <point x="215.874000131" y="179.017638525"/>
      <point x="215.874000131" y="250.038198366" type="curve" smooth="yes"/>
      <point x="215.874000131" y="322.203902037"/>
      <point x="257.22153265" y="365.799817352"/>
      <point x="379.632780915" y="365.799817352" type="curve" smooth="yes"/>
      <point x="417.040753122" y="365.799817352"/>
      <point x="449.818420487" y="362.828797368"/>
      <point x="480.745948884" y="357.480961396" type="curve"/>
      <point x="480.745948884" y="497.165540654" type="line"/>
      <point x="443.600393701" y="504.028968571"/>
      <point x="404.20281164" y="507.081784544"/>
      <point x="363.622700497" y="507.081784544" type="curve" smooth="yes"/>
      <point x="136.298857844" y="507.081784544"/>
      <point x="23.7794747032" y="403.413131255"/>
      <point x="23.7794747032" y="248.686198397" type="curve" smooth="yes"/>
      <point x="23.7794747032" y="84.4952657524"/>
      <point x="132.987248021" y="-6.84179583525"/>
      <point x="360.84914452" y="-6.84179583525" type="curve" smooth="yes"/>
      <point x="401.957394662" y="-6.84179583525"/>
      <point x="446.114837602" y="-1.597387933"/>
    </contour>
  </outline>
</glyph>
<glyph name="D" format="1">
  <advance width="612.045663469"/>
  <unicode hex="0044"/>
  <outline>
    <contour>
      <point x="36.8566985627" y="257.555994186" type="move" name="stroke"/>
    </contour>
    <contour>
      <point x="259.928989637" y="513.759988403" type="move" name="top"/>
    </contour>
    <contour>
      <point x="300.532235427" y="250.119994354" type="move" name="center"/>
    </contour>
    <contour>
      <point x="267.867599352" y="0.0" type="move" name="bottom"/>
    </contour>
    <contour>
      <point x="588.266188766" y="250.119994354" type="curve" smooth="yes"/>
      <point x="588.266188766" y="425.858358305"/>
      <point x="472.700917777" y="504.971988602"/>
      <point x="252.412097528" y="504.971988602" type="curve" smooth="yes"/>
      <point x="181.130520567" y="504.971988602"/>
      <point x="92.2577511426" y="496.369212858"/>
      <point x="36.8566985627" y="483.116233208" type="curve"/>
      <point x="36.8566985627" y="4.65020390535" type="line"/>
      <point x="90.1352803026" y="-2.10979594206"/>
      <point x="164.598911049" y="-4.89559186887"/>
      <point x="210.47363197" y="-4.89559186887" type="curve" smooth="yes"/>
      <point x="465.556169033" y="-4.89559186887"/>
      <point x="588.266188766" y="65.2880787326"/>
    </contour>
    <contour>
      <point x="221.278336248" y="133.213231539" type="curve"/>
      <point x="221.278336248" y="364.077369267" type="line"/>
      <point x="230.904479399" y="366.372389267"/>
      <point x="250.193120145" y="368.236797246"/>
      <point x="261.543151176" y="368.236797246" type="curve" smooth="yes"/>
      <point x="357.338574721" y="368.236797246"/>
      <point x="402.522551111" y="333.282189498"/>
      <point x="402.522551111" y="251.635586299" type="curve" smooth="yes"/>
      <point x="402.522551111" y="166.95779921"/>
      <point x="361.307879579" y="132.59739546"/>
      <point x="261.941734136" y="132.59739546" type="curve" smooth="yes"/>
      <point x="248.220035039" y="132.59739546"/>
      <point x="234.617977132" y="132.270211508"/>
    </contour>
  </outline>
</glyph>
<glyph name="E" format="1">
  <advance width="508.514558142"/>
  <unicode hex="0045"/>
  <outline>
    <contour>
      <point x="12.4261387232" y="500.239988708" type="move" name="topleft"/>
    </contour>
    <contour>
      <point x="265.087433477" y="513.759988403" type="move" name="top"/>
    </contour>
    <contour>
      <point x="447.569698559" y="0.0" type="move" name="ogonek"/>
    </contour>
    <contour>
      <point x="264.821711503" y="0.0" type="move" name="bottom"/>
    </contour>
    <contour>
      <point x="481.948307664" y="0.0" type="line"/>
      <point x="481.948307664" y="131.430619548" type="line"/>
      <point x="218.896753333" y="131.430619548" type="line"/>
      <point x="218.896753333" y="368.809369161" type="line"/>
      <point x="478.64330774" y="368.809369161" type="line"/>
      <point x="478.64330774" y="500.239988708" type="line"/>
      <point x="36.8566985627" y="500.239988708" type="line"/>
      <point x="36.8566985627" y="0.0" type="line"/>
    </contour>
    <contour>
      <point x="443.211725589" y="189.987092475" type="line"/>
      <point x="443.211725589" y="319.902120078" type="line"/>
      <point x="124.699629587" y="319.902120078" type="line"/>
      <point x="124.699629587" y="189.987092475" type="line"/>
    </contour>
  </outline>
</glyph>
<glyph name="F" format="1">
  <advance width="502.04402918"/>
  <unicode hex="0046"/>
  <outline>
    <contour>
      <point x="221.278336248" y="0.0" type="line"/>
      <point x="221.278336248" y="363.504797352" type="line"/>
      <point x="479.307612675" y="363.504797352" type="line"/>
      <point x="479.307612675" y="500.239988708" type="line"/>
      <point x="36.8566985627" y="500.239988708" type="line"/>
      <point x="36.8566985627" y="0.0" type="line"/>
    </contour>
    <contour>
      <point x="441.494447608" y="168.01100927" type="line"/>
      <point x="441.494447608" y="304.746200626" type="line"/>
      <point x="136.072795264" y="304.746200626" type="line"/>
      <point x="136.072795264" y="168.01100927" type="line"/>
    </contour>
  </outline>
</glyph>
<glyph name="G" format="1">
  <advance width="564.291059036"/>
  <unicode hex="0047"/>
  <outline>
    <contour>
      <point x="319.574983897" y="513.759988403" type="move" name="top"/>
    </contour>
    <contour>
      <point x="319.574983897" y="0.0" type="move" name="bottom"/>
    </contour>
    <contour>
      <point x="524.916611622" y="6.75999984741" type="curve"/>
      <point x="524.916611622" y="243.359994507" type="line"/>
      <point x="353.990610454" y="243.359994507" type="line"/>
      <point x="353.990610454" y="56.3053901927" type="line"/>
      <point x="454.937204933" y="139.030211356" type="line"/>
      <point x="426.779927563" y="135.219599411"/>
      <point x="389.760623468" y="132.59739546"/>
      <point x="362.277565881" y="132.59739546" type="curve" smooth="yes"/>
      <point x="255.896227731" y="132.59739546"/>
      <point x="214.153417201" y="176.56375889"/>
      <point x="214.286278187" y="243.975830586" type="curve" smooth="yes"/>
      <point x="214.419139174" y="321.446106065"/>
      <point x="255.620590909" y="365.04202138"/>
      <point x="400.396112315" y="365.799817352" type="curve" smooth="yes"/>
      <point x="438.471694406" y="365.799817352"/>
      <point x="476.148693536" y="362.501613416"/>
      <point x="504.551863183" y="357.480961396" type="curve"/>
      <point x="504.551863183" y="497.165540654" type="line"/>
      <point x="467.675334923" y="504.028968571"/>
      <point x="421.265865105" y="507.081784544"/>
      <point x="386.3723368" y="507.081784544" type="curve" smooth="yes"/>
      <point x="135.096499063" y="507.081784544"/>
      <point x="23.9123356901" y="403.331335267"/>
      <point x="23.7794747032" y="247.170606452" type="curve" smooth="yes"/>
      <point x="23.6466137164" y="81.9595901294"/>
      <point x="134.182996902" y="-7.16897978661"/>
      <point x="373.391619483" y="-7.16897978661" type="curve" smooth="yes"/>
      <point x="425.487672139" y="-7.16897978661"/>
      <point x="476.929334709" y="-1.35199996948"/>
    </contour>
  </outline>
</glyph>
<glyph name="H" format="1">
  <advance width="606.608277857"/>
  <unicode hex="0048"/>
  <outline>
    <contour>
      <point x="14.0138606664" y="500.239988708" type="move" name="topleft"/>
    </contour>
    <contour>
      <point x="303.701069414" y="513.759988403" type="move" name="top"/>
    </contour>
    <contour>
      <point x="303.701069414" y="416.389626178" type="move" name="center"/>
    </contour>
    <contour>
      <point x="303.701069414" y="0.0" type="move" name="bottom"/>
    </contour>
    <contour>
      <point x="221.278336248" y="0.0" type="line"/>
      <point x="221.278336248" y="180.135744831" type="line"/>
      <point x="385.329941609" y="180.135744831" type="line"/>
      <point x="385.329941609" y="0.0" type="line"/>
      <point x="569.751579294" y="0.0" type="line"/>
      <point x="569.751579294" y="500.239988708" type="line"/>
      <point x="385.329941609" y="500.239988708" type="line"/>
      <point x="385.329941609" y="329.753467721" type="line"/>
      <point x="221.278336248" y="329.753467721" type="line"/>
      <point x="221.278336248" y="500.239988708" type="line"/>
      <point x="36.8566985627" y="500.239988708" type="line"/>
      <point x="36.8566985627" y="0.0" type="line"/>
    </contour>
  </outline>
</glyph>
<glyph name="I" format="1">
  <advance width="258.135034811"/>
  <unicode hex="0049"/>
  <outline>
    <contour>
      <point x="129.067517405" y="513.759988403" type="move" name="top"/>
    </contour>
    <contour>
      <point x="221.278336248" y="0.0" type="move" name="ogonek"/>
    </contour>
    <contour>
      <point x="128.273656434" y="0.0" type="move" name="bottom"/>
    </contour>
    <contour>
      <point x="221.278336248" y="0.0" type="line"/>
      <point x="221.278336248" y="500.239988708" type="line"/>
      <point x="36.8566985627" y="500.239988708" type="line"/>
      <point x="36.8566985627" y="0.0" type="line"/>
    </contour>
  </outline>
</glyph>
<glyph name="J" format="1">
  <advance width="258.135034811"/>
  <unicode hex="004A"/>
  <outline>
    <contour>
      <point x="129.861378377" y="513.759988403" type="move" name="top"/>
    </contour>
    <contour>
      <point x="217.026784669" y="0.0" type="move" name="bottom"/>
    </contour>
    <contour>
      <point x="221.278336248" y="110.26506116" type="curve"/>
      <point x="221.278336248" y="500.239988708" type="line"/>
      <point x="38.4444205059" y="500.239988708" type="line"/>
      <point x="38.4444205059" y="102.730365599" type="line" smooth="yes"/>
      <point x="38.4444205059" y="34.0839190244"/>
      <point x="28.5393355833" y="-6.13199636702"/>
      <point x="-5.42416581427" y="-48.9484836275" type="curve"/>
      <point x="107.290872353" y="-121.740161159" type="line"/>
      <point x="193.513031939" y="-46.9928149805"/>
      <point x="222.208363156" y="24.8653072015"/>
    </contour>
  </outline>
</glyph>
<glyph name="K" format="1">
  <advance width="524.777140736"/>
  <unicode hex="004B"/>
  <outline>
    <contour>
      <point x="276.211401928" y="500.239988708" type="move" name="top"/>
    </contour>
    <contour>
      <point x="278.592984843" y="0.0" type="move" name="bottom"/>
    </contour>
    <contour>
      <point x="547.00855289" y="0.0" type="line"/>
      <point x="368.438745518" y="276.010117574" type="line"/>
      <point x="363.675579688" y="235.312890936" type="line"/>
      <point x="529.952109324" y="500.239988708" type="line"/>
      <point x="337.993749833" y="500.239988708" type="line"/>
      <point x="184.54855178" y="254.688402272" type="line"/>
      <point x="348.038305642" y="0.0" type="line"/>
    </contour>
    <contour>
      <point x="221.278336248" y="0.0" type="line"/>
      <point x="221.278336248" y="500.239988708" type="line"/>
      <point x="36.8566985627" y="500.239988708" type="line"/>
      <point x="36.8566985627" y="0.0" type="line"/>
    </contour>
    <contour>
      <point x="256.909541384" y="180.135744831" type="line"/>
      <point x="256.909541384" y="329.753467721" type="line"/>
      <point x="196.937673052" y="329.753467721" type="line"/>
      <point x="196.937673052" y="180.135744831" type="line"/>
    </contour>
  </outline>
</glyph>
<glyph name="L" format="1">
  <advance width="462.503671285"/>
  <unicode hex="004C"/>
  <outline>
    <contour>
      <point x="313.104454935" y="500.239988708" type="move" name="caronalt"/>
    </contour>
    <contour>
      <point x="129.067517405" y="513.759988403" type="move" name="top"/>
    </contour>
    <contour>
      <point x="357.544144596" y="320.720079956" type="move" name="periodcentered"/>
    </contour>
    <contour>
      <point x="129.067517405" y="291.923832998" type="move" name="slash"/>
    </contour>
    <contour>
      <point x="248.160545949" y="0.0" type="move" name="bottom"/>
    </contour>
    <contour>
      <point x="459.597254321" y="0.0" type="line"/>
      <point x="459.597254321" y="136.735191356" type="line"/>
      <point x="221.278336248" y="136.735191356" type="line"/>
      <point x="221.278336248" y="500.239988708" type="line"/>
      <point x="36.8566985627" y="500.239988708" type="line"/>
      <point x="36.8566985627" y="0.0" type="line"/>
    </contour>
  </outline>
</glyph>
<glyph name="M" format="1">
  <advance width="738.838019351"/>
  <unicode hex="004D"/>
  <outline>
    <contour>
      <point x="382.120785221" y="500.239988708" type="move" name="top"/>
    </contour>
    <contour>
      <point x="382.120785221" y="0.0" type="move" name="bottom"/>
    </contour>
    <contour>
      <point x="211.619143602" y="0.0" type="line"/>
      <point x="211.619143602" y="353.24446977" type="line"/>
      <point x="167.438566015" y="353.24446977" type="line"/>
      <point x="294.14499321" y="75.1779581999" type="line"/>
      <point x="444.693026141" y="75.1779581999" type="line"/>
      <point x="562.005982663" y="353.24446977" type="line"/>
      <point x="527.218875749" y="353.24446977" type="line"/>
      <point x="527.218875749" y="0.0" type="line"/>
      <point x="700.659320819" y="0.0" type="line"/>
      <point x="700.659320819" y="500.239988708" type="line"/>
      <point x="476.149356543" y="500.239988708" type="line"/>
      <point x="362.410426867" y="228.459600801" type="line"/>
      <point x="381.718897311" y="228.459600801" type="line"/>
      <point x="262.688662808" y="500.239988708" type="line"/>
      <point x="38.1786985322" y="500.239988708" type="line"/>
      <point x="38.1786985322" y="0.0" type="line"/>
    </contour>
  </outline>
</glyph>
<glyph name="N" format="1">
  <advance width="608.584667912"/>
  <unicode hex="004E"/>
  <outline>
    <contour>
      <point x="304.225903463" y="513.759988403" type="move" name="top"/>
    </contour>
    <contour>
      <point x="304.225903463" y="0.0" type="move" name="bottom"/>
    </contour>
    <contour>
      <point x="210.297143633" y="0.0" type="line"/>
      <point x="210.297143633" y="289.753200049" type="line"/>
      <point x="182.917202486" y="289.753200049" type="line"/>
      <point x="387.704914625" y="0.0" type="line"/>
      <point x="571.72796935" y="0.0" type="line"/>
      <point x="571.72796935" y="500.239988708" type="line"/>
      <point x="398.28752428" y="500.239988708" type="line"/>
      <point x="398.28752428" y="210.48678866" type="line"/>
      <point x="425.667465426" y="210.48678866" type="line"/>
      <point x="220.879753287" y="500.239988708" type="line"/>
      <point x="36.8566985627" y="500.239988708" type="line"/>
      <point x="36.8566985627" y="0.0" type="line"/>
    </contour>
  </outline>
</glyph>
<glyph name="O" format="1">
  <advance width="645.773187439"/>
  <unicode hex="004F"/>
  <outline>
    <contour>
      <point x="20.0990264654" y="500.239988708" type="move" name="topleft"/>
    </contour>
    <contour>
      <point x="322.886593719" y="250.119994354" type="move" name="center"/>
    </contour>
    <contour>
      <point x="322.886593719" y="0.0" type="move" name="bottom"/>
    </contour>
    <contour>
      <point x="322.886593719" y="513.759988403" type="move" name="top"/>
    </contour>
    <contour>
      <point x="402.355977623" y="500.239988708" type="move" name="topright"/>
    </contour>
    <contour>
      <point x="373.644121659" y="0.0" type="move" name="ogonek"/>
    </contour>
    <contour>
      <point x="621.993712735" y="250.119994354" type="curve" smooth="yes"/>
      <point x="621.993712735" y="404.9287232"/>
      <point x="510.264885617" y="507.081784544"/>
      <point x="322.886593719" y="507.081784544" type="curve" smooth="yes"/>
      <point x="135.109718861" y="507.081784544"/>
      <point x="23.7794747032" y="406.444315145"/>
      <point x="23.7794747032" y="250.119994354" type="curve" smooth="yes"/>
      <point x="23.7794747032" y="93.7956735631"/>
      <point x="136.302162793" y="-6.84179583525"/>
      <point x="322.886593719" y="-6.84179583525" type="curve" smooth="yes"/>
      <point x="509.869607606" y="-6.84179583525"/>
      <point x="621.993712735" y="95.3112655082"/>
    </contour>
    <contour>
      <point x="209.523112358" y="252.987586269" type="curve" smooth="yes"/>
      <point x="209.523112358" y="328.266269818"/>
      <point x="248.62192295" y="370.428389176"/>
      <point x="322.886593719" y="370.428389176" type="curve" smooth="yes"/>
      <point x="397.151264489" y="370.428389176"/>
      <point x="436.250075081" y="325.9928819"/>
      <point x="436.250075081" y="247.25240244" type="curve" smooth="yes"/>
      <point x="436.250075081" y="174.247106808"/>
      <point x="399.532847404" y="129.811599533"/>
      <point x="322.886593719" y="129.811599533" type="curve" smooth="yes"/>
      <point x="246.240340035" y="129.811599533"/>
      <point x="209.523112358" y="171.973718891"/>
    </contour>
  </outline>
</glyph>
<glyph name="P" format="1">
  <advance width="518.429557913"/>
  <unicode hex="0050"/>
  <outline>
    <contour>
      <point x="221.278336248" y="0.0" type="line"/>
      <point x="221.278336248" y="126.012481888" type="line"/>
      <point x="229.718645366" y="126.421461827"/>
      <point x="242.13486924" y="125.82725783"/>
      <point x="252.428622275" y="125.82725783" type="curve" smooth="yes"/>
      <point x="409.088923608" y="125.82725783"/>
      <point x="494.905890335" y="189.022440363"/>
      <point x="494.905890335" y="316.372725199" type="curve" smooth="yes"/>
      <point x="494.905890335" y="448.88562195"/>
      <point x="408.301672536" y="507.245376519"/>
      <point x="227.407129397" y="507.245376519" type="curve" smooth="yes"/>
      <point x="155.866440362" y="507.245376519"/>
      <point x="92.6530291537" y="500.158192721"/>
      <point x="36.8566985627" y="489.936396962" type="curve"/>
      <point x="36.8566985627" y="0.0" type="line"/>
    </contour>
    <contour>
      <point x="221.278336248" y="248.943753762" type="curve"/>
      <point x="221.278336248" y="384.537860527" type="line"/>
      <point x="229.984367339" y="386.075084554"/>
      <point x="236.704093527" y="386.423900588"/>
      <point x="245.665931744" y="386.423900588" type="curve" smooth="yes"/>
      <point x="297.171051362" y="386.423900588"/>
      <point x="317.894723368" y="365.893780742"/>
      <point x="317.894723368" y="316.454521187" type="curve" smooth="yes"/>
      <point x="317.894723368" y="262.653709855"/>
      <point x="295.97530248" y="246.648733762"/>
      <point x="254.016344218" y="246.648733762" type="curve" smooth="yes"/>
      <point x="241.872452216" y="246.648733762"/>
      <point x="233.82411616" y="247.161141771"/>
    </contour>
  </outline>
</glyph>
<glyph name="Q" format="1">
  <advance width="645.773187439"/>
  <unicode hex="0051"/>
  <outline>
    <contour>
      <point x="620.944044639" y="-12.00914009" type="line"/>
      <point x="513.971773451" y="1.73461548636"/>
      <point x="421.830358548" y="21.3987789497"/>
      <point x="329.526338112" y="52.6367381414" type="curve"/>
      <point x="265.887904348" y="10.9363275675" type="line"/>
      <point x="514.367051462" y="-20.4435915179"/>
      <point x="621.993712735" y="95.8020414353"/>
      <point x="621.993712735" y="250.119994354" type="curve" smooth="yes"/>
      <point x="621.993712735" y="404.437947273"/>
      <point x="510.663468578" y="507.081784544"/>
      <point x="322.886593719" y="507.081784544" type="curve" smooth="yes"/>
      <point x="135.109718861" y="507.081784544"/>
      <point x="23.7794747032" y="406.444315145"/>
      <point x="23.7794747032" y="242.542034628" type="curve" smooth="yes"/>
      <point x="23.7794747032" y="78.9020418167"/>
      <point x="138.148996811" y="-73.2871857991"/>
      <point x="593.69035458" y="-141.924167693" type="curve"/>
    </contour>
    <contour>
      <point x="209.523112358" y="252.987586269" type="curve" smooth="yes"/>
      <point x="209.523112358" y="328.266269818"/>
      <point x="248.62192295" y="370.428389176"/>
      <point x="322.886593719" y="370.428389176" type="curve" smooth="yes"/>
      <point x="397.151264489" y="370.428389176"/>
      <point x="436.250075081" y="325.9928819"/>
      <point x="436.250075081" y="247.25240244" type="curve" smooth="yes"/>
      <point x="436.250075081" y="174.247106808"/>
      <point x="399.532847404" y="129.811599533"/>
      <point x="322.886593719" y="129.811599533" type="curve" smooth="yes"/>
      <point x="244.652618092" y="129.811599533"/>
      <point x="209.523112358" y="170.458126946"/>
    </contour>
  </outline>
</glyph>
<glyph name="R" format="1">
  <advance width="533.210839955"/>
  <unicode hex="0052"/>
  <outline>
    <contour>
      <point x="270.52151414" y="513.759988403" type="move" name="top"/>
    </contour>
    <contour>
      <point x="276.19818213" y="0.0" type="move" name="bottom"/>
    </contour>
    <contour>
      <point x="217.30903139" y="0.0" type="line"/>
      <point x="217.30903139" y="160.777133237" type="line"/>
      <point x="229.718645366" y="160.346521216"/>
      <point x="243.589730197" y="159.834113207"/>
      <point x="252.68773435" y="159.834113207" type="curve" smooth="yes"/>
      <point x="392.155426181" y="159.834113207"/>
      <point x="487.36255863" y="219.197051712"/>
      <point x="487.36255863" y="334.13394886" type="curve" smooth="yes"/>
      <point x="487.36255863" y="453.802845901"/>
      <point x="397.310565072" y="507.245376519"/>
      <point x="235.342434164" y="507.245376519" type="curve" smooth="yes"/>
      <point x="177.968296478" y="507.245376519"/>
      <point x="92.1315000547" y="496.614600821"/>
      <point x="36.8566985627" y="483.116233208" type="curve"/>
      <point x="36.8566985627" y="0.0" type="line"/>
    </contour>
    <contour>
      <point x="540.259082157" y="0.0" type="line"/>
      <point x="381.652135314" y="228.694850982" type="line"/>
      <point x="183.210027063" y="228.694850982" type="line"/>
      <point x="338.774391007" y="0.0" type="line"/>
    </contour>
    <contour>
      <point x="217.30903139" y="284.62979306" type="curve"/>
      <point x="217.30903139" y="383.10406457" type="line"/>
      <point x="228.130923423" y="385.399084569"/>
      <point x="245.439869164" y="387.18169656"/>
      <point x="252.940236526" y="387.18169656" type="curve" smooth="yes"/>
      <point x="295.045275572" y="387.18169656"/>
      <point x="317.230418433" y="369.562432793"/>
      <point x="317.230418433" y="334.297540836" type="curve" smooth="yes"/>
      <point x="317.230418433" y="294.692729183"/>
      <point x="295.443858533" y="281.413385112"/>
      <point x="260.493483079" y="281.413385112" type="curve" smooth="yes"/>
      <point x="250.076783906" y="281.413385112"/>
      <point x="229.98106239" y="282.765385081"/>
    </contour>
  </outline>
</glyph>
<glyph name="S" format="1">
  <advance width="469.518863991"/>
  <unicode hex="0053"/>
  <outline>
    <contour>
      <point x="240.248375829" y="513.759988403" type="move" name="top"/>
    </contour>
    <contour>
      <point x="240.248375829" y="0.0" type="move" name="bottom"/>
    </contour>
    <contour>
      <point x="451.286501241" y="160.861631946" type="curve" smooth="yes"/>
      <point x="451.286501241" y="247.242937759"/>
      <point x="398.659004637" y="292.431508667"/>
      <point x="279.542841448" y="315.497304136" type="curve" smooth="yes"/>
      <point x="203.550977849" y="330.47273187"/>
      <point x="198.418973604" y="336.21264804"/>
      <point x="198.418973604" y="348.738928479" type="curve" smooth="yes"/>
      <point x="198.418973604" y="360.692637003"/>
      <point x="211.476367767" y="372.619981105"/>
      <point x="293.427146077" y="372.619981105" type="curve" smooth="yes"/>
      <point x="335.203006102" y="372.619981105"/>
      <point x="389.81350266" y="365.77818527"/>
      <point x="421.269170055" y="356.723165423" type="curve"/>
      <point x="421.269170055" y="493.376560791" type="line"/>
      <point x="386.767614811" y="500.997784681"/>
      <point x="337.979867028" y="507.081784544"/>
      <point x="283.635092444" y="507.081784544" type="curve" smooth="yes"/>
      <point x="104.3183564" y="507.081784544"/>
      <point x="18.2323627506" y="448.209621965"/>
      <point x="18.2323627506" y="341.324560729" type="curve" smooth="yes"/>
      <point x="18.2323627506" y="260.226194642"/>
      <point x="69.4016934483" y="204.859092139"/>
      <point x="176.477081077" y="187.937460439" type="curve" smooth="yes"/>
      <point x="261.204720313" y="174.47762465"/>
      <point x="271.099890387" y="165.542932614"/>
      <point x="271.099890387" y="148.0608964" type="curve" smooth="yes"/>
      <point x="271.099890387" y="136.516167815"/>
      <point x="264.659105971" y="127.620007603"/>
      <point x="203.617739846" y="127.620007603" type="curve" smooth="yes"/>
      <point x="161.310435873" y="127.620007603"/>
      <point x="79.7119712305" y="136.735191356"/>
      <point x="33.7076942723" y="151.443599045" type="curve"/>
      <point x="33.7076942723" y="14.7902036765" type="line"/>
      <point x="81.5687200969" y="2.1915919299"/>
      <point x="138.026050673" y="-6.84179583525"/>
      <point x="205.338322776" y="-6.84179583525" type="curve" smooth="yes"/>
      <point x="358.590507744" y="-6.84179583525"/>
      <point x="451.286501241" y="57.8257144781"/>
    </contour>
  </outline>
</glyph>
<glyph name="T" format="1">
  <advance width="524.667414396"/>
  <unicode hex="0054"/>
  <outline>
    <contour>
      <point x="262.333707198" y="513.759988403" type="move" name="top"/>
    </contour>
    <contour>
      <point x="262.333707198" y="232.510195267" type="move" name="center"/>
    </contour>
    <contour>
      <point x="262.333707198" y="0.0" type="move" name="bottom"/>
    </contour>
    <contour>
      <point x="354.54452604" y="0.0" type="line"/>
      <point x="354.54452604" y="363.504797352" type="line"/>
      <point x="517.658831588" y="363.504797352" type="line"/>
      <point x="517.658831588" y="500.239988708" type="line"/>
      <point x="7.00858280795" y="500.239988708" type="line"/>
      <point x="7.00858280795" y="363.504797352" type="line"/>
      <point x="170.122888355" y="363.504797352" type="line"/>
      <point x="170.122888355" y="0.0" type="line"/>
    </contour>
  </outline>
</glyph>
<glyph name="U" format="1">
  <advance width="593.5178342"/>
  <unicode hex="0055"/>
  <outline>
    <contour>
      <point x="298.28020855" y="513.759988403" type="move" name="top"/>
    </contour>
    <contour>
      <point x="390.590838884" y="-0.163591975677" type="move" name="ogonek"/>
    </contour>
    <contour>
      <point x="377.132219819" y="500.239988708" type="move" name="topright"/>
    </contour>
    <contour>
      <point x="298.28020855" y="0.0" type="move" name="bottom"/>
    </contour>
    <contour>
      <point x="558.511274604" y="239.806937927" type="curve" smooth="yes"/>
      <point x="558.511274604" y="500.239988708" type="line"/>
      <point x="377.132219819" y="500.239988708" type="line"/>
      <point x="377.132219819" y="225.817794387" type="line" smooth="yes"/>
      <point x="377.132219819" y="162.406291034"/>
      <point x="350.316772115" y="132.924579411"/>
      <point x="298.28020855" y="132.924579411" type="curve" smooth="yes"/>
      <point x="246.243644984" y="132.924579411"/>
      <point x="219.428197281" y="162.406291034"/>
      <point x="219.428197281" y="225.817794387" type="curve" smooth="yes"/>
      <point x="219.428197281" y="500.239988708" type="line"/>
      <point x="35.0065595953" y="500.239988708" type="line"/>
      <point x="35.0065595953" y="239.806937927" type="line" smooth="yes"/>
      <point x="35.0065595953" y="86.9106135638"/>
      <point x="108.520333737" y="-6.84179583525"/>
      <point x="298.28020855" y="-6.84179583525" type="curve" smooth="yes"/>
      <point x="484.070778504" y="-6.84179583525"/>
      <point x="558.511274604" y="86.9106135638"/>
    </contour>
  </outline>
</glyph>
<glyph name="V" format="1">
  <advance width="597.264381427"/>
  <unicode hex="0056"/>
  <outline>
    <contour>
      <point x="432.054044636" y="0.0" type="line"/>
      <point x="596.872408366" y="500.239988708" type="line"/>
      <point x="415.891936541" y="500.239988708" type="line"/>
      <point x="281.499401806" y="72.6280855561" type="line"/>
      <point x="324.89272832" y="72.6280855561" type="line"/>
      <point x="194.60235943" y="500.239988708" type="line"/>
      <point x="0.391973061554" y="500.239988708" type="line"/>
      <point x="165.210336791" y="0.0" type="line"/>
    </contour>
  </outline>
</glyph>
<glyph name="W" format="1">
  <advance width="939.177198869"/>
  <unicode hex="0057"/>
  <outline>
    <contour>
      <point x="469.522168941" y="513.759988403" type="move" name="top"/>
    </contour>
    <contour>
      <point x="469.522168941" y="0.0" type="move" name="bottom"/>
    </contour>
    <contour>
      <point x="378.622772212" y="0.0" type="line"/>
      <point x="497.569719971" y="409.670187774" type="line"/>
      <point x="447.297366686" y="409.670187774" type="line"/>
      <point x="560.554426656" y="0.0" type="line"/>
      <point x="792.468251751" y="0.0" type="line"/>
      <point x="935.626306668" y="500.239988708" type="line"/>
      <point x="760.863861629" y="500.239988708" type="line"/>
      <point x="650.778940595" y="87.7840050077" type="line"/>
      <point x="686.233657394" y="87.7840050077" type="line"/>
      <point x="574.431458379" y="500.239988708" type="line"/>
      <point x="374.272072148" y="500.239988708" type="line"/>
      <point x="255.192263403" y="87.7840050077" type="line"/>
      <point x="296.204007002" y="87.7840050077" type="line"/>
      <point x="189.294529855" y="500.239988708" type="line"/>
      <point x="3.68375318729" y="500.239988708" type="line"/>
      <point x="146.708947118" y="0.0" type="line"/>
    </contour>
  </outline>
</glyph>
<glyph name="X" format="1">
  <advance width="540.245862359"/>
  <unicode hex="0058"/>
  <outline>
    <contour>
      <point x="571.083494112" y="0.0" type="line"/>
      <point x="376.885664535" y="265.706525827" type="line"/>
      <point x="270.916792151" y="378.683021988" type="line"/>
      <point x="191.284139708" y="500.239988708" type="line"/>
      <point x="-12.3164123828" y="500.239988708" type="line"/>
      <point x="161.111475896" y="262.757137925" type="line"/>
      <point x="267.08034828" y="149.780641764" type="line"/>
      <point x="367.482942021" y="0.0" type="line"/>
    </contour>
    <contour>
      <point x="167.47161551" y="0.0" type="line"/>
      <point x="267.08034828" y="149.780641764" type="line"/>
      <point x="376.885664535" y="265.706525827" type="line"/>
      <point x="546.344247956" y="500.239988708" type="line"/>
      <point x="349.622722635" y="500.239988708" type="line"/>
      <point x="270.916792151" y="378.683021988" type="line"/>
      <point x="161.111475896" y="262.757137925" type="line"/>
      <point x="-29.9109097951" y="0.0" type="line"/>
    </contour>
  </outline>
</glyph>
<glyph name="Y" format="1">
  <advance width="524.667414396"/>
  <unicode hex="0059"/>
  <outline>
    <contour>
      <point x="3.30499992371" y="500.239988708" type="move" name="topleft"/>
    </contour>
    <contour>
      <point x="261.539846226" y="513.759988403" type="move" name="top"/>
    </contour>
    <contour>
      <point x="261.539846226" y="0.0" type="move" name="bottom"/>
    </contour>
    <contour>
      <point x="356.132247984" y="0.0" type="line"/>
      <point x="356.132247984" y="265.150853654" type="line"/>
      <point x="320.943253159" y="149.900969576" type="line"/>
      <point x="540.408467891" y="500.239988708" type="line"/>
      <point x="360.225161987" y="500.239988708" type="line"/>
      <point x="242.095209847" y="301.116080399" type="line"/>
      <point x="291.832814234" y="301.116080399" type="line"/>
      <point x="170.265001183" y="500.239988708" type="line"/>
      <point x="-23.1482192639" y="500.239988708" type="line"/>
      <point x="206.899605123" y="149.900969576" type="line"/>
      <point x="171.710610298" y="267.424241572" type="line"/>
      <point x="171.710610298" y="0.0" type="line"/>
    </contour>
  </outline>
</glyph>
<glyph name="Z" format="1">
  <advance width="504.023724185"/>
  <unicode hex="005A"/>
  <outline>
    <contour>
      <point x="252.408792578" y="513.759988403" type="move" name="top"/>
    </contour>
    <contour>
      <point x="252.408792578" y="0.0" type="move" name="bottom"/>
    </contour>
    <contour>
      <point x="475.726975929" y="0.0" type="line"/>
      <point x="475.726975929" y="136.816987344" type="line"/>
      <point x="239.576797988" y="136.816987344" type="line"/>
      <point x="238.779632067" y="104.455516404" type="line"/>
      <point x="472.687697979" y="405.635819948" type="line"/>
      <point x="472.687697979" y="500.239988708" type="line"/>
      <point x="31.336026206" y="500.239988708" type="line"/>
      <point x="31.336026206" y="363.423001365" type="line"/>
      <point x="261.407648246" y="363.423001365" type="line"/>
      <point x="262.204814168" y="395.784472304" type="line"/>
      <point x="28.296748256" y="94.6041687609" type="line"/>
      <point x="28.296748256" y="0.0" type="line"/>
    </contour>
  </outline>
</glyph>
<glyph name="a" format="1">
  <advance width="459.211891159"/>
  <unicode hex="0061"/>
  <outline>
    <contour>
      <point x="228.217515116" y="405.599990845" type="move" name="top"/>
    </contour>
    <contour>
      <point x="428.563304533" y="0.0" type="move" name="ogonek"/>
    </contour>
    <contour>
      <point x="226.623183274" y="0.0" type="move" name="bottom"/>
    </contour>
    <contour>
      <point x="261.211330212" y="28.6204875809" type="curve"/>
      <point x="268.618495981" y="28.6204875809" type="line"/>
      <point x="280.127827594" y="0.0" type="line"/>
      <point x="428.563304533" y="0.0" type="line"/>
      <point x="428.563304533" y="187.304724618" type="line" smooth="yes"/>
      <point x="428.563304533" y="331.446848663"/>
      <point x="365.492669161" y="378.783747337"/>
      <point x="201.365712968" y="378.783747337" type="curve" smooth="yes"/>
      <point x="159.453687006" y="378.783747337"/>
      <point x="102.594468521" y="373.457543446"/>
      <point x="54.8563888345" y="361.289543721" type="curve"/>
      <point x="54.8563888345" y="242.065455722" type="line"/>
      <point x="89.8860830763" y="251.714679566"/>
      <point x="136.823691892" y="257.204475432"/>
      <point x="167.890691175" y="257.204475432" type="curve" smooth="yes"/>
      <point x="236.368967614" y="257.204475432"/>
      <point x="252.874137536" y="241.389455738"/>
      <point x="252.874137536" y="202.542440057" type="curve" smooth="yes"/>
      <point x="252.874137536" y="106.269225158" type="line"/>
      <point x="242.317967477" y="102.514044778"/>
      <point x="229.91826835" y="102.53094452"/>
      <point x="221.886457041" y="102.53094452" type="curve" smooth="yes"/>
      <point x="200.900368011" y="102.53094452"/>
      <point x="190.603310027" y="111.220248592"/>
      <point x="190.603310027" y="123.005632801" type="curve" smooth="yes"/>
      <point x="190.603310027" y="136.47020093"/>
      <point x="198.385924109" y="146.408076902"/>
      <point x="223.72668116" y="147.53632099" type="curve" smooth="yes"/>
      <point x="297.981437081" y="150.959585077" type="line"/>
      <point x="280.250773732" y="233.133466408" type="line"/>
      <point x="207.716600741" y="229.71020232" type="line" smooth="yes"/>
      <point x="72.9691103962" y="222.764978415"/>
      <point x="13.7250040463" y="181.141631488"/>
      <point x="13.7250040463" y="107.255509352" type="curve" smooth="yes"/>
      <point x="13.7250040463" y="43.3025308472"/>
      <point x="61.7188908577" y="-7.68138779567"/>
      <point x="161.5530232" y="-7.68138779567" type="curve" smooth="yes"/>
      <point x="200.807829425" y="-7.68138779567"/>
      <point x="235.698052781" y="1.90767214261"/>
    </contour>
  </outline>
</glyph>
<glyph name="o" format="1">
  <advance width="500.333361099"/>
  <unicode hex="006F"/>
  <outline>
    <contour>
      <point x="250.166680549" y="405.599990845" type="move" name="top"/>
    </contour>
    <contour>
      <point x="323.823230526" y="0.0" type="move" name="ogonek"/>
    </contour>
    <contour>
      <point x="241.793133428" y="372.617951486" type="move" name="topright"/>
    </contour>
    <contour>
      <point x="250.166680549" y="186.308975743" type="move" name="center"/>
    </contour>
    <contour>
      <point x="250.166680549" y="0.0" type="move" name="bottom"/>
    </contour>
    <contour>
      <point x="483.034330205" y="186.308975743" type="curve" smooth="yes"/>
      <point x="483.034330205" y="305.082849258"/>
      <point x="399.598946394" y="378.783747337"/>
      <point x="250.166680549" y="378.783747337" type="curve" smooth="yes"/>
      <point x="100.468692731" y="378.783747337"/>
      <point x="17.2990308932" y="305.410033209"/>
      <point x="17.2990308932" y="186.308975743" type="curve" smooth="yes"/>
      <point x="17.2990308932" y="67.535102228"/>
      <point x="109.466885392" y="-7.59959180783"/>
      <point x="250.166680549" y="-7.59959180783" type="curve" smooth="yes"/>
      <point x="391.13219768" y="-7.59959180783"/>
      <point x="483.034330205" y="67.2079182767"/>
    </contour>
    <contour>
      <point x="194.31019786" y="186.227179755" type="curve" smooth="yes"/>
      <point x="194.31019786" y="230.099579796"/>
      <point x="212.393174877" y="249.626515706"/>
      <point x="250.166680549" y="249.626515706" type="curve" smooth="yes"/>
      <point x="287.940186222" y="249.626515706"/>
      <point x="306.023163238" y="230.099579796"/>
      <point x="306.023163238" y="186.390771731" type="curve" smooth="yes"/>
      <point x="306.023163238" y="142.51837169"/>
      <point x="287.940186222" y="121.557639822"/>
      <point x="250.166680549" y="121.557639822" type="curve" smooth="yes"/>
      <point x="212.393174877" y="121.557639822"/>
      <point x="194.31019786" y="142.51837169"/>
    </contour>
  </outline>
</glyph>
<glyph name="AE" format="1">
  <advance width="814.228372056"/>
  <unicode hex="00C6"/>
  <outline>
    <contour>
      <point x="428.430443547" y="513.759988403" type="move" name="top"/>
    </contour>
    <contour>
      <point x="420.458784336" y="0.0" type="move" name="bottom"/>
    </contour>
    <contour>
      <point x="180.439113029" y="0.0" type="line"/>
      <point x="286.1197918" y="366.535981243" type="line"/>
      <point x="415.864833938" y="366.535981243" type="line"/>
      <point x="415.599111964" y="500.239988708" type="line"/>
      <point x="166.655282899" y="500.239988708" type="line"/>
      <point x="2.76694607733" y="0.0" type="line"/>
    </contour>
    <contour>
      <point x="406.179201696" y="104.957786631" type="line"/>
      <point x="406.179201696" y="234.872814234" type="line"/>
      <point x="218.348784638" y="234.872814234" type="line"/>
      <point x="176.015041069" y="104.957786631" type="line"/>
    </contour>
    <contour>
      <point x="787.662121578" y="0.0" type="line"/>
      <point x="787.662121578" y="131.430619548" type="line"/>
      <point x="547.732346915" y="131.430619548" type="line"/>
      <point x="524.47770626" y="368.809369161" type="line"/>
      <point x="784.357121654" y="368.809369161" type="line"/>
      <point x="784.357121654" y="500.239988708" type="line"/>
      <point x="332.383180833" y="500.239988708" type="line"/>
      <point x="374.95290183" y="0.0" type="line"/>
    </contour>
    <contour>
      <point x="748.925539503" y="189.987092475" type="line"/>
      <point x="748.925539503" y="319.902120078" type="line"/>
      <point x="425.763308961" y="319.902120078" type="line"/>
      <point x="425.763308961" y="189.987092475" type="line"/>
    </contour>
  </outline>
</glyph>
<glyph name="Oslash" format="1">
  <advance width="645.773187439"/>
  <unicode hex="00D8"/>
  <outline>
    <contour>
      <point x="322.358454721" y="513.759988403" type="move" name="top"/>
    </contour>
    <contour>
      <point x="322.092732748" y="0.0" type="move" name="bottom"/>
    </contour>
    <component base="slashcomb.case" xOffset="18.7935512434"/>
    <component base="O"/>
  </outline>
</glyph>
<glyph name="Thorn" format="1">
  <advance width="521.734557837"/>
  <unicode hex="00DE"/>
  <outline>
    <contour>
      <point x="221.278336248" y="0.0" type="line"/>
      <point x="221.278336248" y="66.3561589148" type="line"/>
      <point x="229.718645366" y="66.765138854"/>
      <point x="243.722591184" y="66.1709348571"/>
      <point x="254.016344218" y="66.1709348571" type="curve" smooth="yes"/>
      <point x="409.088923608" y="66.1709348571"/>
      <point x="494.905890335" y="129.366117389"/>
      <point x="494.905890335" y="256.716402226" type="curve" smooth="yes"/>
      <point x="494.905890335" y="389.229298977"/>
      <point x="409.889394479" y="447.589053546"/>
      <point x="231.376434255" y="447.589053546" type="curve" smooth="yes"/>
      <point x="231.283232662" y="447.589053546"/>
      <point x="224.958784486" y="447.322033501"/>
      <point x="221.278336248" y="447.976401403" type="curve"/>
      <point x="221.278336248" y="500.158192721" type="line"/>
      <point x="36.8566985627" y="500.158192721" type="line"/>
      <point x="36.8566985627" y="0.0" type="line"/>
    </contour>
    <contour>
      <point x="221.278336248" y="188.529634816" type="curve"/>
      <point x="221.278336248" y="324.881537554" type="line"/>
      <point x="229.984367339" y="326.418761581"/>
      <point x="236.704093527" y="326.767577614"/>
      <point x="245.665931744" y="326.767577614" type="curve" smooth="yes"/>
      <point x="297.171051362" y="326.767577614"/>
      <point x="317.894723368" y="306.237457768"/>
      <point x="317.894723368" y="256.798198214" type="curve" smooth="yes"/>
      <point x="317.894723368" y="202.997386882"/>
      <point x="295.97530248" y="186.992410789"/>
      <point x="254.016344218" y="186.992410789" type="curve" smooth="yes"/>
      <point x="241.872452216" y="186.992410789"/>
      <point x="233.82411616" y="187.504818798"/>
    </contour>
  </outline>
</glyph>
<glyph name="OE" format="1">
  <advance width="845.51151907"/>
  <unicode hex="0152"/>
  <outline>
    <contour>
      <point x="478.490617057" y="513.759988403" type="move" name="top"/>
    </contour>
    <contour>
      <point x="478.490617057" y="0.0" type="move" name="bottom"/>
    </contour>
    <contour>
      <point x="512.746280024" y="0.0" type="curve" smooth="yes"/>
      <point x="818.945268592" y="0.0" type="line"/>
      <point x="818.945268592" y="131.430619548" type="line"/>
      <point x="569.113713956" y="131.430619548" type="line"/>
      <point x="569.113713956" y="368.809369161" type="line"/>
      <point x="815.640268669" y="368.809369161" type="line"/>
      <point x="815.640268669" y="500.239988708" type="line"/>
      <point x="514.074889892" y="500.239988708" type="line" smooth="yes"/>
      <point x="470.708002974" y="500.239988708"/>
      <point x="426.819586957" y="504.971988602"/>
      <point x="389.142587827" y="504.971988602" type="curve" smooth="yes"/>
      <point x="145.695633465" y="504.971988602"/>
      <point x="23.7794747032" y="427.37395025"/>
      <point x="23.7794747032" y="250.119994354" type="curve" smooth="yes"/>
      <point x="23.7794747032" y="65.2880787326"/>
      <point x="137.757023749" y="-4.89559186887"/>
      <point x="396.549753595" y="-4.89559186887" type="curve" smooth="yes"/>
      <point x="428.669725924" y="-4.89559186887"/>
      <point x="469.243227169" y="0.0"/>
    </contour>
    <contour>
      <point x="208.729251386" y="248.604402409" type="curve" smooth="yes"/>
      <point x="208.729251386" y="332.524393526"/>
      <point x="249.943922919" y="366.7212053"/>
      <point x="345.081651429" y="366.7212053" type="curve" smooth="yes"/>
      <point x="360.264821381" y="366.7212053"/>
      <point x="374.531184223" y="366.966593264"/>
      <point x="387.073659186" y="365.859981258" type="curve"/>
      <point x="387.073659186" y="134.38000745" type="line"/>
      <point x="372.405408434" y="133.191599457"/>
      <point x="354.040184696" y="133.355191432"/>
      <point x="345.081651429" y="133.355191432" type="curve" smooth="yes"/>
      <point x="249.943922919" y="133.355191432"/>
      <point x="208.729251386" y="167.715595183"/>
    </contour>
    <contour>
      <point x="780.208686517" y="189.987092475" type="line"/>
      <point x="780.208686517" y="319.902120078" type="line"/>
      <point x="473.587980341" y="319.902120078" type="line"/>
      <point x="473.587980341" y="189.987092475" type="line"/>
    </contour>
  </outline>
</glyph>
<glyph name="Ohorn" format="1">
  <advance width="645.773187439"/>
  <unicode hex="01A0"/>
  <outline>
    <contour>
      <point x="322.886593719" y="513.759988403" type="move" name="top"/>
    </contour>
    <contour>
      <point x="322.886593719" y="0.0" type="move" name="bottom"/>
    </contour>
    <contour>
      <point x="621.993712735" y="250.119994354" type="curve" smooth="yes"/>
      <point x="621.993712735" y="343.00374465"/>
      <point x="582.333713651" y="418.285130919"/>
      <point x="508.291800511" y="461.015089852" type="curve"/>
      <point x="508.026078538" y="428.326434961" type="line"/>
      <point x="580.344103798" y="428.326434961"/>
      <point x="628.344600508" y="467.163985961"/>
      <point x="628.344600508" y="548.584803659" type="curve" smooth="yes"/>
      <point x="628.344600508" y="562.044639448"/>
      <point x="628.082183484" y="577.919823048"/>
      <point x="622.927044593" y="600.28798645" type="curve"/>
      <point x="512.201616278" y="600.28798645" type="line"/>
      <point x="515.108033242" y="577.162027075"/>
      <point x="515.237589279" y="564.399823353"/>
      <point x="515.237589279" y="553.049783506" type="curve" smooth="yes"/>
      <point x="515.237589279" y="512.756804467"/>
      <point x="492.63403376" y="500.56717266"/>
      <point x="443.321451929" y="500.56717266" type="curve" smooth="yes"/>
      <point x="415.579282267" y="500.56717266"/>
      <point x="360.958870861" y="507.081784544"/>
      <point x="322.886593719" y="507.081784544" type="curve" smooth="yes"/>
      <point x="135.109718861" y="507.081784544"/>
      <point x="23.7794747032" y="406.444315145"/>
      <point x="23.7794747032" y="250.119994354" type="curve" smooth="yes"/>
      <point x="23.7794747032" y="93.7956735631"/>
      <point x="136.302162793" y="-6.84179583525"/>
      <point x="322.886593719" y="-6.84179583525" type="curve" smooth="yes"/>
      <point x="509.471024646" y="-6.84179583525"/>
      <point x="621.993712735" y="95.8020414353"/>
    </contour>
    <contour>
      <point x="209.523112358" y="252.987586269" type="curve" smooth="yes"/>
      <point x="209.523112358" y="328.266269818"/>
      <point x="248.62192295" y="370.428389176"/>
      <point x="322.886593719" y="370.428389176" type="curve" smooth="yes"/>
      <point x="397.151264489" y="370.428389176"/>
      <point x="436.250075081" y="325.9928819"/>
      <point x="436.250075081" y="247.25240244" type="curve" smooth="yes"/>
      <point x="436.250075081" y="174.247106808"/>
      <point x="399.532847404" y="129.811599533"/>
      <point x="322.886593719" y="129.811599533" type="curve" smooth="yes"/>
      <point x="246.240340035" y="129.811599533"/>
      <point x="209.523112358" y="171.973718891"/>
    </contour>
  </outline>
</glyph>
<glyph name="Uhorn" format="1">
  <advance width="593.5178342"/>
  <unicode hex="01AF"/>
  <outline>
    <contour>
      <point x="296.692486606" y="513.759988403" type="move" name="top"/>
    </contour>
    <contour>
      <point x="296.692486606" y="0.0" type="move" name="bottom"/>
    </contour>
    <contour>
      <point x="608.461721774" y="600.28798645" type="curve"/>
      <point x="497.73629346" y="600.28798645" type="line"/>
      <point x="500.642710423" y="577.162027075"/>
      <point x="500.77226646" y="564.399823353"/>
      <point x="500.77226646" y="553.049783506" type="curve" smooth="yes"/>
      <point x="500.77226646" y="512.756804467"/>
      <point x="478.168710942" y="500.239988708"/>
      <point x="428.85612911" y="500.239988708" type="curve" smooth="yes"/>
      <point x="377.132219819" y="500.239988708" type="line"/>
      <point x="377.132219819" y="225.817794387" type="line" smooth="yes"/>
      <point x="377.132219819" y="162.406291034"/>
      <point x="350.316772115" y="132.924579411"/>
      <point x="298.28020855" y="132.924579411" type="curve" smooth="yes"/>
      <point x="246.243644984" y="132.924579411"/>
      <point x="219.428197281" y="162.406291034"/>
      <point x="219.428197281" y="225.817794387" type="curve" smooth="yes"/>
      <point x="219.428197281" y="500.239988708" type="line"/>
      <point x="35.0065595953" y="500.239988708" type="line"/>
      <point x="35.0065595953" y="239.806937927" type="line" smooth="yes"/>
      <point x="35.0065595953" y="86.9106135638"/>
      <point x="108.520333737" y="-6.84179583525"/>
      <point x="298.28020855" y="-6.84179583525" type="curve" smooth="yes"/>
      <point x="484.070778504" y="-6.84179583525"/>
      <point x="558.511274604" y="86.9106135638"/>
      <point x="558.511274604" y="239.806937927" type="curve" smooth="yes"/>
      <point x="558.511274604" y="439.202598623" type="line"/>
      <point x="592.866749063" y="457.144314001"/>
      <point x="613.879277689" y="493.277865062"/>
      <point x="613.879277689" y="548.584803659" type="curve" smooth="yes"/>
      <point x="613.879277689" y="562.044639448"/>
      <point x="613.616860665" y="577.919823048"/>
    </contour>
  </outline>
</glyph>
<glyph name="Germandbls" format="1">
  <advance width="728.391575632"/>
  <outline>
    <contour>
      <point x="710.159212882" y="160.861631946" type="curve" smooth="yes"/>
      <point x="710.159212882" y="247.242937759"/>
      <point x="659.913299193" y="290.158120749"/>
      <point x="547.941884747" y="315.497304136" type="curve" smooth="yes"/>
      <point x="484.651796694" y="330.47273187"/>
      <point x="480.313653421" y="336.21264804"/>
      <point x="480.313653421" y="348.738928479" type="curve" smooth="yes"/>
      <point x="480.313653421" y="360.692637003"/>
      <point x="491.78332564" y="372.619981105"/>
      <point x="561.032328405" y="372.619981105" type="curve" smooth="yes"/>
      <point x="600.426605516" y="372.619981105"/>
      <point x="651.861658187" y="365.77818527"/>
      <point x="681.729603639" y="356.723165423" type="curve"/>
      <point x="681.729603639" y="493.376560791" type="line"/>
      <point x="649.60963131" y="500.997784681"/>
      <point x="603.203466441" y="507.081784544"/>
      <point x="552.034135744" y="507.081784544" type="curve" smooth="yes"/>
      <point x="382.243731359" y="507.081784544"/>
      <point x="300.920903539" y="448.209621965"/>
      <point x="300.920903539" y="341.324560729" type="curve" smooth="yes"/>
      <point x="300.920903539" y="260.226194642"/>
      <point x="348.91479035" y="207.050684069"/>
      <point x="450.433151178" y="187.937460439" type="curve" smooth="yes"/>
      <point x="521.665153897" y="174.47762465"/>
      <point x="530.766463" y="165.542932614"/>
      <point x="530.766463" y="148.0608964" type="curve" smooth="yes"/>
      <point x="530.766463" y="135.00057587"/>
      <point x="525.119539555" y="127.620007603"/>
      <point x="475.986088004" y="127.620007603" type="curve" smooth="yes"/>
      <point x="436.060366945" y="127.620007603"/>
      <point x="359.225068133" y="136.735191356"/>
      <point x="315.602374089" y="151.443599045" type="curve"/>
      <point x="315.602374089" y="14.7902036765" type="line"/>
      <point x="361.081816999" y="2.1915919299"/>
      <point x="414.363703688" y="-6.84179583525"/>
      <point x="477.706670934" y="-6.84179583525" type="curve" smooth="yes"/>
      <point x="622.226385214" y="-6.84179583525"/>
      <point x="710.159212882" y="57.8257144781"/>
    </contour>
    <contour>
      <point x="221.278336248" y="0.0" type="line"/>
      <point x="221.278336248" y="303.976237252" type="line" smooth="yes"/>
      <point x="221.278336248" y="344.653861427"/>
      <point x="240.155174236" y="371.862185133"/>
      <point x="276.314518369" y="371.862185133" type="curve" smooth="yes"/>
      <point x="298.516185978" y="371.862185133"/>
      <point x="315.429853708" y="364.017205362"/>
      <point x="333.14068736" y="352.116225682" type="curve"/>
      <point x="432.087757138" y="465.828885733" type="line"/>
      <point x="386.727955417" y="492.743824971"/>
      <point x="335.817736794" y="507.081784544"/>
      <point x="276.314518369" y="507.081784544" type="curve" smooth="yes"/>
      <point x="111.164333676" y="507.081784544"/>
      <point x="36.8566985627" y="417.87615098"/>
      <point x="36.8566985627" y="283.166929959" type="curve" smooth="yes"/>
      <point x="36.8566985627" y="0.0" type="line"/>
    </contour>
  </outline>
</glyph>
<glyph name="Schwa" format="1">
  <advance width="632.144689935"/>
  <outline>
    <contour>
      <point x="268.771186664" y="498.604068952" type="move" name="top"/>
    </contour>
    <contour>
      <point x="268.771186664" y="0.0" type="move" name="bottom"/>
    </contour>
    <contour>
      <point x="608.365215232" y="242.623830616" type="curve" smooth="yes"/>
      <point x="608.365215232" y="421.518438609"/>
      <point x="490.032998165" y="507.081784544"/>
      <point x="237.454990155" y="507.081784544" type="curve" smooth="yes"/>
      <point x="181.130520567" y="507.081784544"/>
      <point x="118.322302218" y="502.349784651"/>
      <point x="63.7184155594" y="493.376560791" type="curve"/>
      <point x="63.7184155594" y="356.723165423" type="line"/>
      <point x="112.104275432" y="365.696389282"/>
      <point x="171.996161969" y="371.10438916"/>
      <point x="223.826492652" y="371.10438916" type="curve" smooth="yes"/>
      <point x="358.26199173" y="371.10438916"/>
      <point x="429.766326321" y="338.117617461"/>
      <point x="429.766326321" y="239.674442714" type="curve" smooth="yes"/>
      <point x="429.766326321" y="149.997635686"/>
      <point x="397.018403502" y="120.718047862"/>
      <point x="321.428427813" y="120.718047862" type="curve" smooth="yes"/>
      <point x="236.584452338" y="120.718047862"/>
      <point x="206.218112434" y="154.544411521"/>
      <point x="206.218112434" y="239.674442714" type="curve"/>
      <point x="149.8638983" y="179.192724801" type="line"/>
      <point x="477.786652729" y="179.192724801" type="line"/>
      <point x="477.786652729" y="298.498608788" type="line"/>
      <point x="20.4744747795" y="298.498608788" type="line"/>
      <point x="20.4744747795" y="250.937954233" type="line" smooth="yes"/>
      <point x="20.4744747795" y="94.2864494901"/>
      <point x="131.804718937" y="-6.84179583525"/>
      <point x="319.046844899" y="-6.84179583525" type="curve" smooth="yes"/>
      <point x="504.574997829" y="-6.84179583525"/>
      <point x="608.365215232" y="95.8020414353"/>
    </contour>
  </outline>
</glyph>
<glyph name="slashcomb.case" format="1">
  <advance width="582.782533861"/>
  <outline>
    <contour>
      <point x="304.093042476" y="250.119994354" type="move" name="_center"/>
    </contour>
    <contour>
      <point x="564.566695858" y="466.362925824" type="line"/>
      <point x="501.071037929" y="523.077295956" type="line"/>
      <point x="43.6193890939" y="33.8770628846" type="line"/>
      <point x="107.115047023" y="-22.8373072473" type="line"/>
    </contour>
  </outline>
</glyph>
<glyph name="slashcomb" format="1">
  <advance width="370.027793475"/>
  <outline>
    <contour>
      <point x="185.013896738" y="186.308975743" type="move" name="_center"/>
    </contour>
    <contour>
      <point x="112.592755036" y="30.1746113498" type="line"/>
      <point x="143.281001056" y="76.4434298413" type="line"/>
      <point x="278.334535775" y="256.13166291" type="line"/>
      <point x="316.96139151" y="294.822521675" type="line"/>
      <point x="368.273498043" y="358.443583889" type="line"/>
      <point x="308.747144972" y="406.064402349" type="line"/>
      <point x="257.435038439" y="342.443340136" type="line"/>
      <point x="226.74679242" y="296.174521645" type="line"/>
      <point x="91.6932577003" y="116.486288576" type="line"/>
      <point x="53.0664019651" y="77.7954298108" type="line"/>
      <point x="1.75429543207" y="14.1743675975" type="line"/>
      <point x="61.2806485032" y="-33.4464508634" type="line"/>
    </contour>
  </outline>
</glyph>
<glyph name="slashshortcomb.case" format="1">
  <advance width="359.663310487"/>
  <outline>
    <contour>
      <point x="132.199996948" y="261.611994095" type="move" name="_slash"/>
    </contour>
    <contour>
      <point x="366.017503209" y="310.926193497" type="line"/>
      <point x="320.116342692" y="403.687586362" type="line"/>
      <point x="-23.0649325195" y="248.371181847" type="line"/>
      <point x="22.8362279973" y="155.609788983" type="line"/>
    </contour>
  </outline>
</glyph>
<glyph name="slashshortcomb" format="1">
  <advance width="264.399993896"/>
  <outline>
    <contour>
      <point x="132.199996948" y="261.611994095" type="move" name="_slash"/>
    </contour>
    <contour>
      <point x="288.53111926" y="277.595338105" type="line"/>
      <point x="244.217680687" y="367.325547079" type="line"/>
      <point x="-24.3968473374" y="245.628650084" type="line"/>
      <point x="19.9165912362" y="155.89844111" type="line"/>
    </contour>
  </outline>
</glyph>
<glyph name="strokelongcomb.case" format="1">
  <advance width="606.608277857"/>
  <outline>
    <contour>
      <point x="304.096347425" y="399.898606499" type="move" name="_center"/>
    </contour>
    <contour>
      <point x="604.75483394" y="348.079828236" type="line"/>
      <point x="604.75483394" y="451.717384762" type="line"/>
      <point x="2.64399993896" y="451.717384762" type="line"/>
      <point x="2.64399993896" y="348.079828236" type="line"/>
    </contour>
  </outline>
</glyph>
<glyph name="strokeshortcomb.D" format="1">
  <advance width="506.152804924"/>
  <outline>
    <contour>
      <point x="100.963782234" y="372.617951486" type="move" name="_stroke"/>
    </contour>
    <contour>
      <point x="365.712121842" y="320.799173223" type="line"/>
      <point x="365.712121842" y="424.436729749" type="line"/>
      <point x="66.3558055993" y="424.436729749" type="line"/>
      <point x="66.3558055993" y="320.799173223" type="line"/>
    </contour>
  </outline>
</glyph>
<glyph name="strokeshortcomb.case" format="1">
  <advance width="503.561684177"/>
  <outline>
    <contour>
      <point x="260.513312776" y="365.03999176" type="move" name="_center"/>
    </contour>
    <contour>
      <point x="457.012743473" y="313.221213497" type="line"/>
      <point x="457.012743473" y="416.858770023" type="line"/>
      <point x="64.0138820785" y="416.858770023" type="line"/>
      <point x="64.0138820785" y="313.221213497" type="line"/>
    </contour>
  </outline>
</glyph>
<glyph name="strokeshortcomb.d" format="1">
  <advance width="506.152804924"/>
  <outline>
    <contour>
      <point x="412.642457751" y="372.617951486" type="move" name="_stroke"/>
    </contour>
    <contour>
      <point x="445.935044315" y="324.588153086" type="line"/>
      <point x="445.935044315" y="420.647749886" type="line"/>
      <point x="93.9115720757" y="420.647749886" type="line"/>
      <point x="93.9115720757" y="324.588153086" type="line"/>
    </contour>
  </outline>
</glyph>
<glyph name="strokeshortcomb.h" format="1">
  <advance width="506.152804924"/>
  <outline>
    <contour>
      <point x="106.212122718" y="372.617951486" type="move" name="_stroke"/>
    </contour>
    <contour>
      <point x="424.943008394" y="324.588153086" type="line"/>
      <point x="424.943008394" y="420.647749886" type="line"/>
      <point x="72.9195361538" y="420.647749886" type="line"/>
      <point x="72.9195361538" y="324.588153086" type="line"/>
    </contour>
  </outline>
</glyph>
<glyph name="strokeshortcomb.t" format="1">
  <advance width="506.152804924"/>
  <outline>
    <contour>
      <point x="106.212122718" y="372.617951486" type="move" name="_stroke"/>
    </contour>
    <contour>
      <point x="343.450965142" y="328.377132949" type="line"/>
      <point x="343.450965142" y="416.858770023" type="line"/>
      <point x="72.9195361538" y="416.858770023" type="line"/>
      <point x="72.9195361538" y="328.377132949" type="line"/>
    </contour>
  </outline>
</glyph>
